<?xml version="1.0" ?><svg id="social_x5F_codepen" height="55" width="55" style="enable-background:new 0 0 32 28.268;" version="1.1" viewBox="0 0 32 28.268" xml:space="preserve" xmlns="http://www.w3.org/2000/svg" xmlns:xlink="http://www.w3.org/1999/xlink"><g><g><path d="M16,28.268L0,19.733V8.534L16,0l16,8.534v11.199L16,28.268z M2,18.534L16,26l14-7.466V9.733    L16,2.268L2,9.733V18.534z M31,19.134h0.01H31z" style="fill:#ffffff;"/></g><g><path d="M16,18.268L0.529,10.017C0.042,9.756-0.142,9.15,0.118,8.663c0.259-0.486,0.864-0.67,1.353-0.412    L16,16l14.529-7.749c0.489-0.257,1.093-0.074,1.353,0.412c0.26,0.487,0.076,1.093-0.412,1.354L16,18.268z" style="fill:#ffffff;"/></g><g><path d="M30.999,20.134c-0.159,0-0.32-0.038-0.47-0.117L16,12.268L1.471,20.017    c-0.487,0.258-1.093,0.075-1.353-0.412c-0.26-0.487-0.076-1.093,0.412-1.354L16,10l15.471,8.251    c0.487,0.261,0.671,0.866,0.412,1.354C31.703,19.941,31.357,20.134,30.999,20.134z" style="fill:#ffffff;"/></g><g><path d="M16,28.134c-0.552,0-1-0.447-1-1v-10c0-0.553,0.448-1,1-1s1,0.447,1,1v10    C17,27.687,16.552,28.134,16,28.134z" style="fill:#ffffff;"/></g><g><path d="M16,12.134c-0.552,0-1-0.447-1-1v-10c0-0.553,0.448-1,1-1s1,0.447,1,1v10    C17,11.687,16.552,12.134,16,12.134z" style="fill:#ffffff;"/></g></g></svg>